<?xml version="1.0" encoding="UTF-8"?>
<svg version="1.1" xmlns="http://www.w3.org/2000/svg" width="360" height="360">
<path d="M0 0 C118.8 0 237.6 0 360 0 C360 118.8 360 237.6 360 360 C241.2 360 122.4 360 0 360 C0 241.2 0 122.4 0 0 Z " fill="#000000" transform="translate(0,0)"/>
<path d="M0 0 C4.85652326 1.96523066 9.82837975 3.36705713 14.9296875 4.546875 C15.99086506 2.45798044 17.00512627 0.372898 17.9375 -1.77734375 C19.09524124 -4.22641175 20.2413304 -6.33086442 21.9296875 -8.453125 C25.1229237 -9.37321001 26.7483485 -9.58454004 29.9296875 -9.453125 C31.28513672 -9.46859375 31.28513672 -9.46859375 32.66796875 -9.484375 C35.09078403 -9.51179017 37.50730307 -9.49780012 39.9296875 -9.453125 C38.1994048 -5.4157987 36.23048859 -3.91911563 32.4296875 -2.015625 C28.24176091 0.12260093 26.52069386 1.98599009 24.9296875 6.546875 C28.2296875 6.876875 31.5296875 7.206875 34.9296875 7.546875 C35.65648554 9.41578424 36.37564175 11.28792095 37.0625 13.171875 C37.61386395 14.68191682 38.18948106 16.18348624 38.796875 17.671875 C42.0166905 26.50336893 42.6625355 37.52426552 40.05078125 46.6015625 C38.16590036 50.3962072 36.21463529 52.76857024 32.3671875 54.609375 C28.9296875 55.546875 28.9296875 55.546875 24.9296875 55.546875 C24.79433594 54.9178125 24.65898437 54.28875 24.51953125 53.640625 C22.59495172 45.98840461 19.49204452 40.70131716 12.9296875 36.1640625 C5.86577803 32.45031598 -2.32154466 32.13137689 -9.9140625 34.39453125 C-17.13717612 37.60359528 -21.29959179 42.41519334 -24.3828125 49.609375 C-25.15399769 52.904439 -25.60851233 56.19586351 -26.0703125 59.546875 C-35.50716198 59.89937636 -44.94467036 60.23109344 -54.3828125 60.546875 C-55.09245148 60.5706295 -55.80209045 60.594384 -56.53323364 60.61885834 C-87.38683567 61.64350017 -118.20052994 61.77650819 -149.0703125 61.546875 C-149.12364746 60.80284424 -149.17698242 60.05881348 -149.23193359 59.29223633 C-149.31008301 58.3102124 -149.38823242 57.32818848 -149.46875 56.31640625 C-149.57968994 54.86004761 -149.57968994 54.86004761 -149.69287109 53.37426758 C-150.59049998 46.65017954 -153.86806564 41.91296823 -159.16796875 37.80078125 C-165.95741242 33.3256038 -173.0464404 32.4715107 -181.0703125 33.546875 C-189.68730105 36.16101759 -194.22527622 41.26323619 -198.3828125 48.984375 C-199.03881195 51.42946384 -199.34862022 53.69388252 -199.61328125 56.20703125 C-199.69989014 57.01922119 -199.78649902 57.83141113 -199.87573242 58.66821289 C-199.93994385 59.28817139 -200.00415527 59.90812988 -200.0703125 60.546875 C-204.34113164 60.57584935 -208.61192559 60.59366496 -212.8828125 60.609375 C-214.70522461 60.62194336 -214.70522461 60.62194336 -216.56445312 60.63476562 C-218.30952148 60.63959961 -218.30952148 60.63959961 -220.08984375 60.64453125 C-221.16339111 60.64976807 -222.23693848 60.65500488 -223.34301758 60.66040039 C-226.0703125 60.546875 -226.0703125 60.546875 -229.0703125 59.546875 C-229.0703125 58.226875 -229.0703125 56.906875 -229.0703125 55.546875 C-226.5953125 55.051875 -226.5953125 55.051875 -224.0703125 54.546875 C-224.16570312 53.6290625 -224.26109375 52.71125 -224.359375 51.765625 C-225.25363454 41.86637989 -225.55331914 34.6506333 -219.0703125 26.546875 C-212.00425076 18.93727005 -200.86979794 17.62450095 -191.1171875 15.35546875 C-188.22895356 14.64683636 -188.22895356 14.64683636 -186.14624023 13.80932617 C-179.62540801 11.34012994 -173.56185621 11.07187345 -166.6328125 10.984375 C-150.75332279 10.72562653 -140.0281777 7.29144612 -126.15136719 -0.2253418 C-115.93317146 -5.73205602 -106.57892058 -10.43529166 -95.0703125 -12.453125 C-93.61044922 -12.77990234 -93.61044922 -12.77990234 -92.12109375 -13.11328125 C-61.53056117 -19.15141252 -28.32628808 -11.58252265 0 0 Z " fill="#FBFBFB" transform="translate(274.0703125,147.453125)"/>
<path d="M0 0 C4.52097949 4.07660971 7.54586253 8.46723293 8.3359375 14.61328125 C8.44248594 21.97577826 7.45919111 27.23928133 2.38671875 32.75390625 C-2.71056459 37.4443111 -7.72808848 39.53854884 -14.7890625 39.30859375 C-20.91095786 38.45412426 -26.30867523 36.23545725 -30.5 31.625 C-35.00436094 25.60646123 -35.90051362 19.36369363 -35 12 C-33.16297807 5.77392568 -29.33885472 1.55923648 -24 -2 C-15.94442682 -5.85266543 -7.39852691 -4.75619587 0 0 Z " fill="#F8F8F8" transform="translate(113,188)"/>
<path d="M0 0 C5.73599712 2.81785872 9.92067502 7.50663988 12.3125 13.4375 C13.21391771 20.7746209 12.88554507 27.42951117 8.3125 33.4375 C3.35379641 38.8164327 -1.59037098 41.3723017 -8.9375 41.875 C-15.18015862 41.71682453 -20.63853576 39.03054436 -25.359375 35.015625 C-29.39161504 30.60388001 -30.47286662 25.79846718 -31 20 C-30.44259256 13.64555523 -28.38286998 7.89208177 -23.6875 3.4375 C-15.77941046 -1.72987981 -8.93368977 -3.43603453 0 0 Z " fill="#F8F8F8" transform="translate(282.6875,185.5625)"/>
<path d="M0 0 C0 6.27 0 12.54 0 19 C-21.78 19 -43.56 19 -66 19 C-60.36507937 14.49206349 -60.36507937 14.49206349 -57.3984375 13 C-56.74963623 12.67217529 -56.10083496 12.34435059 -55.43237305 12.0065918 C-54.75343994 11.6744165 -54.07450684 11.34224121 -53.375 11 C-52.66061768 10.65042236 -51.94623535 10.30084473 -51.21020508 9.94067383 C-34.65409233 1.94890373 -18.28430983 -0.54309831 0 0 Z " fill="#030303" transform="translate(207,142)"/>
<path d="M0 0 C21.77852639 1.77826584 41.50747543 5.69583907 61.7421875 14.12109375 C65.74428271 15.67900278 69.86809802 16.83955093 74 18 C74 18.33 74 18.66 74 19 C49.58 19 25.16 19 0 19 C0 12.73 0 6.46 0 0 Z " fill="#020202" transform="translate(212,142)"/>
<path d="M0 0 C4.57627119 3.15254237 4.57627119 3.15254237 6 6 C6.44408691 9.9079648 6.13704844 11.74548146 4.25 15.25 C0.99342105 19.23026316 0.99342105 19.23026316 -2 20 C-6.26047438 19.92253683 -8.42928489 19.42183291 -11.875 16.875 C-14.44480711 13.39820214 -15 11.30969005 -15 7 C-13.63527603 3.46777324 -12.34152689 2.22768459 -9.1875 0.125 C-5.46873696 -1.1875046 -3.73963241 -1.19349971 0 0 Z " fill="#0C0C0C" transform="translate(104,196)"/>
<path d="M0 0 C4.57627119 3.15254237 4.57627119 3.15254237 6 6 C6.12272016 10.5406461 5.86358012 13.98402339 2.875 17.5 C-0.63111919 19.32927958 -3.0316307 20 -7 20 C-12.46835443 17.06329114 -12.46835443 17.06329114 -14 14 C-14.42074378 10.94059163 -14.47999423 8.0540292 -14 5 C-9.86141701 -0.36897253 -6.53194342 -1.69830529 0 0 Z " fill="#090909" transform="translate(278,196)"/>
<path d="M0 0 C4.70777777 2.97291829 9.17553366 7.35123558 11.13671875 12.64453125 C11.20117188 13.2478125 11.265625 13.85109375 11.33203125 14.47265625 C9.89453125 16.22265625 9.89453125 16.22265625 8.33203125 17.47265625 C7.00507334 15.48221938 5.6923646 13.48220467 4.39453125 11.47265625 C0.84428748 6.30866531 -2.53972158 4.05551939 -8.66796875 2.47265625 C-15.37911468 1.47489296 -20.92735621 2.89873405 -26.66796875 6.47265625 C-31.16945972 10.58271322 -32.58868725 14.63805916 -33.9921875 20.3984375 C-34.21519531 21.08292969 -34.43820313 21.76742187 -34.66796875 22.47265625 C-35.32796875 22.80265625 -35.98796875 23.13265625 -36.66796875 23.47265625 C-36.99796875 24.46265625 -37.32796875 25.45265625 -37.66796875 26.47265625 C-41.29796875 26.47265625 -44.92796875 26.47265625 -48.66796875 26.47265625 C-48.66796875 26.14265625 -48.66796875 25.81265625 -48.66796875 25.47265625 C-45.36796875 25.47265625 -42.06796875 25.47265625 -38.66796875 25.47265625 C-38.77109375 24.19390625 -38.87421875 22.91515625 -38.98046875 21.59765625 C-38.95968787 14.99972696 -36.37268752 9.53072308 -32.0234375 4.61328125 C-22.91729156 -3.69119496 -11.18507715 -5.04141604 0 0 Z " fill="#161616" transform="translate(112.66796875,182.52734375)"/>
<path d="M0 0 C4.80729875 2.7414171 8.55500397 6.39500596 11.625 11 C11.625 11.66 11.625 12.32 11.625 13 C9.645 13.99 9.645 13.99 7.625 15 C7.068125 14.0925 6.51125 13.185 5.9375 12.25 C2.31247286 7.15536726 -1.25301238 4.41276637 -7.375 3 C-14.74013893 1.93772035 -20.20973677 3.96758459 -26.375 8 C-30.16868187 11.60399778 -31.2080645 15.04052412 -32.375 20 C-33.035 19.34 -33.695 18.68 -34.375 18 C-35.365 18.66 -36.355 19.32 -37.375 20 C-36.05625636 12.61503561 -33.38798182 7.0647347 -27.30859375 2.421875 C-18.97265182 -2.92049663 -9.2342712 -4.22705502 0 0 Z " fill="#0E0E0E" transform="translate(285.375,182)"/>
<path d="M0 0 C-0.99 0 -1.98 0 -3 0 C-3 0.66 -3 1.32 -3 2 C-2.34 2.33 -1.68 2.66 -1 3 C-1.74765625 3.37511719 -2.4953125 3.75023437 -3.265625 4.13671875 C-11.68742056 8.26576611 -11.68742056 8.26576611 -16.66796875 15.8671875 C-17.17464032 17.56062669 -17.59514731 19.27937608 -18 21 C-18.66 20.34 -19.32 19.68 -20 19 C-20.99 19.66 -21.98 20.32 -23 21 C-21.68125636 13.61503561 -19.01298182 8.0647347 -12.93359375 3.421875 C-5.11660074 -1.58791057 -5.11660074 -1.58791057 0 0 Z " fill="#181818" transform="translate(271,181)"/>
<path d="M0 0 C0.66 0.33 1.32 0.66 2 1 C1.71890887 2.64767247 1.42481474 4.29313145 1.125 5.9375 C0.96257812 6.85402344 0.80015625 7.77054688 0.6328125 8.71484375 C0.42398438 9.46894531 0.21515625 10.22304687 0 11 C-0.99 11.495 -0.99 11.495 -2 12 C-2.33 12.99 -2.66 13.98 -3 15 C-6.63 15 -10.26 15 -14 15 C-14 14.67 -14 14.34 -14 14 C-10.7 14 -7.4 14 -4 14 C-4.12375 11.9271875 -4.12375 11.9271875 -4.25 9.8125 C-4.27323063 6.13044558 -4.10171324 5.1557484 -2 1.9375 C-1.34 1.298125 -0.68 0.65875 0 0 Z " fill="#090909" transform="translate(78,194)"/>
<path d="M0 0 C-0.268125 0.66 -0.53625 1.32 -0.8125 2 C-2.25705047 5.64939067 -3.62871178 9.32245433 -5 13 C-5.66 12.34 -6.32 11.68 -7 11 C-7.99 11.66 -8.98 12.32 -10 13 C-8.87996302 6.99252895 -7.39644447 0 0 0 Z " fill="#191919" transform="translate(258,189)"/>
<path d="M0 0 C0.99 0.33 1.98 0.66 3 1 C3.05391993 2.79133978 3.09275571 4.58313899 3.125 6.375 C3.14820312 7.37273437 3.17140625 8.37046875 3.1953125 9.3984375 C3 12 3 12 1 14 C0.34 14 -0.32 14 -1 14 C-1.02694851 12.04174127 -1.04637218 10.08337774 -1.0625 8.125 C-1.07410156 7.03445312 -1.08570312 5.94390625 -1.09765625 4.8203125 C-1 2 -1 2 0 0 Z " fill="#0A0A0A" transform="translate(122,197)"/>
<path d="M0 0 C1.08152344 -0.01417969 2.16304687 -0.02835938 3.27734375 -0.04296875 C6.0625 0.1875 6.0625 0.1875 8.0625 2.1875 C5.45076365 4.79923635 4.19051112 4.4856789 0.5625 4.5 C-0.4171875 4.51675781 -1.396875 4.53351563 -2.40625 4.55078125 C-3.65921875 4.37095703 -3.65921875 4.37095703 -4.9375 4.1875 C-5.5975 3.1975 -6.2575 2.2075 -6.9375 1.1875 C-5.13003866 -0.61996134 -2.43304219 0.01446517 0 0 Z " fill="#060606" transform="translate(98.9375,179.8125)"/>
<path d="M0 0 C0.66 0 1.32 0 2 0 C3.125 3.75 3.125 3.75 2 6 C1.01 6 0.02 6 -1 6 C-2.68798827 7.43750191 -2.68798827 7.43750191 -4 9 C-2.94124926 5.59687262 -1.99097846 2.98646769 0 0 Z " fill="#101010" transform="translate(79,189)"/>
<path d="M0 0 C0.66 0 1.32 0 2 0 C1.42415568 2.38564077 0.77772405 4.66682784 0 7 C-3.63 7 -7.26 7 -11 7 C-11 6.67 -11 6.34 -11 6 C-7.7 6 -4.4 6 -1 6 C-1 4.35 -1 2.7 -1 1 C-0.67 0.67 -0.34 0.34 0 0 Z " fill="#313131" transform="translate(75,202)"/>
<path d="M0 0 C-0.8125 2.4375 -0.8125 2.4375 -2 5 C-2.99 5.33 -3.98 5.66 -5 6 C-5.33 4.68 -5.66 3.36 -6 2 C-3 0 -3 0 0 0 Z " fill="#0F0F0F" transform="translate(258,189)"/>
<path d="M0 0 C1.5 1.375 1.5 1.375 3 3 C3 3.66 3 4.32 3 5 C1.02 5.99 1.02 5.99 -1 7 C-1.66 5.35 -2.32 3.7 -3 2 C-2.01 1.34 -1.02 0.68 0 0 Z " fill="#1A1A1A" transform="translate(294,190)"/>
<path d="M0 0 C1.31571603 0.2547514 2.62760376 0.52934141 3.9375 0.8125 C4.66839844 0.96332031 5.39929688 1.11414063 6.15234375 1.26953125 C6.76207031 1.51058594 7.37179688 1.75164062 8 2 C8.33 2.99 8.66 3.98 9 5 C8.38125 4.814375 7.7625 4.62875 7.125 4.4375 C4.95839822 3.76313824 4.95839822 3.76313824 3 5 C2.01 3.35 1.02 1.7 0 0 Z " fill="#141414" transform="translate(246,147)"/>
<path d="M0 0 C-0.33 1.32 -0.66 2.64 -1 4 C-3.49064888 4.68707555 -5.37886292 5 -8 5 C-2.25 0 -2.25 0 0 0 Z " fill="#DBDBDB" transform="translate(264,187)"/>
<path d="M0 0 C2 1 2 1 4 4 C-1.75 5.125 -1.75 5.125 -4 4 C-2.68 2.68 -1.36 1.36 0 0 Z " fill="#2B2B2B" transform="translate(257,185)"/>
<path d="M0 0 C2 3.75 2 3.75 2 6 C1.01 6 0.02 6 -1 6 C-1 5.34 -1 4.68 -1 4 C-1.66 3.67 -2.32 3.34 -3 3 C-2.01 2.01 -1.02 1.02 0 0 Z " fill="#1A1A1A" transform="translate(252,209)"/>
</svg>
